<svg xmlns="http://www.w3.org/2000/svg" width="71.707" height="45.079" viewBox="0 0 71.707 45.079"><defs><style>.a,.b{fill:none;stroke:#7859a2;stroke-linecap:round;}.a{stroke-linejoin:round;}.c{fill:#7859a2;}</style></defs><g transform="translate(-792.895 -450.592)"><g transform="translate(73.008)"><path class="a" d="M0,0C.226,1.289,2.867,2.867,2.867,2.867S.193,4.28,0,5.674" transform="matrix(0.995, 0.105, -0.105, 0.995, 788.185, 451.228)"/><path class="b" d="M10887.887,2273.919s9.83-15.922,39.676-11.446" transform="translate(-10137 -1808.214)"/></g><g transform="translate(-425.441 -307.113)"><path class="c" d="M1228.752,781.407a12.514,12.514,0,0,0-1.093,3.174.44.44,0,0,0,.1.361.549.549,0,0,0,.353.188q.54.074,1.575-1.953a11.032,11.032,0,0,0,1.159-2.9,2.845,2.845,0,0,0-.245-1.649,1.531,1.531,0,0,0-1.254-.905,6.358,6.358,0,0,0-1.677-.025c-.526.065-.806.209-.837.43a.831.831,0,0,0,.316.692,1.488,1.488,0,0,0,.86.428c.333.047.616.082.85.1a5.659,5.659,0,0,1-1.881,1.255,3.749,3.749,0,0,1-1.923.408c-.36-.051-.52-.213-.482-.488a7.494,7.494,0,0,1,1.117-2.881,8.524,8.524,0,0,1,2.182-2.416,3.216,3.216,0,0,1,2.322-.779,3.085,3.085,0,0,1,.657.156,2.9,2.9,0,0,0,.293.106c.136.019.218-.066.246-.256a2.506,2.506,0,0,0-.324-1.436q-.411-.816-.885-.883a4.483,4.483,0,0,0-3.139,1.062,12.334,12.334,0,0,0-3.067,3.2,8.87,8.87,0,0,0-1.547,3.652,2.3,2.3,0,0,0,.764,1.916,3.191,3.191,0,0,0,1.828,1.082,3.259,3.259,0,0,0,1.888-.333A7.129,7.129,0,0,0,1228.752,781.407Z"/><path class="c" d="M1232.58,784.222q.5.07,1.03-.768a16.042,16.042,0,0,0,1.213-2.6,4.279,4.279,0,0,1,1.005-1.627,4.949,4.949,0,0,1,1.369-.9c.116-.048.3-.135.571-.259.047-.025.119-.066.219-.123a1.388,1.388,0,0,0,.213-.14c.043-.036.105-.095.187-.175a.707.707,0,0,0,.162-.406q.077-.554-1.079-.717a2.82,2.82,0,0,0-1.174.134,4.787,4.787,0,0,0-1.288.6,1.478,1.478,0,0,0-.363-.81,1.028,1.028,0,0,0-.593-.326c-.369-.053-.6.218-.679.81l-.156,1.8a7.444,7.444,0,0,1-.316,1.386,10.064,10.064,0,0,1-.631,1.391,4.106,4.106,0,0,0-.487,1.216,1.973,1.973,0,0,0,.12.929A.8.8,0,0,0,1232.58,784.222Z"/><path class="c" d="M1238.234,784.176a2.87,2.87,0,0,0,2.029,1.142,4.91,4.91,0,0,0,2.438-.224q1.1-.41,1.187-1.028.06-.427-.589-.519-.031,0-.911.1a8.2,8.2,0,0,1-2.067-.064c-.379-.053-.609-.147-.688-.282a1.023,1.023,0,0,1-.057-.63,2.7,2.7,0,0,1,.264-.835,8.824,8.824,0,0,0,1.8.414,4.266,4.266,0,0,0,2.249-.315q1.141-.469,1.25-1.246a3.074,3.074,0,0,0-.578-2.093,2.488,2.488,0,0,0-1.723-1.252,3.193,3.193,0,0,0-2.14.565,7.145,7.145,0,0,0-1.982,1.862,5.128,5.128,0,0,0-1.011,2.3A2.8,2.8,0,0,0,1238.234,784.176Zm3.439-4.582a1.3,1.3,0,0,1,.812-.314.982.982,0,0,1,.584.391c.193.23.283.4.267.5q-.105.761-2.277.455a3.964,3.964,0,0,1-.41-.073A5.161,5.161,0,0,1,1241.673,779.594Z"/><path class="c" d="M1247.226,786.3a4.1,4.1,0,0,0,2.718-1.169,3.041,3.041,0,0,0,.332,1.144c.173.327.336.5.483.521a.376.376,0,0,0,.335-.082c.05-.046.094-.092.132-.134a.774.774,0,0,0,.116-.2c.039-.085.072-.163.1-.229s.059-.154.1-.268.074-.208.1-.285.056-.183.1-.318.107-.317.182-.547a9.93,9.93,0,0,1,.4-.971,4.014,4.014,0,0,0,.309-.829.687.687,0,0,0-.22-.5,3.129,3.129,0,0,0,.684-1.414,2.108,2.108,0,0,0-.674-1.541,2.51,2.51,0,0,0-1.427-.992,3.41,3.41,0,0,0-2.5.86,9.787,9.787,0,0,0-2.226,2.322,5.5,5.5,0,0,0-.982,2.051,2.146,2.146,0,0,0,.581,1.616A2.275,2.275,0,0,0,1247.226,786.3Zm.7-3.553a8.1,8.1,0,0,1,1.529-1.578,2.154,2.154,0,0,1,1.535-.625c.168.023.227.339.174.945-.172,0-.272.059-.3.185a3.67,3.67,0,0,1-1.613,1.994,3.106,3.106,0,0,1-1.808.627.322.322,0,0,1-.194-.069.258.258,0,0,1-.015-.172A3.473,3.473,0,0,1,1247.928,782.744Z"/><path class="c" d="M1259.957,779.975q-.395-.055-1.16-.131a6.383,6.383,0,0,0,.4-1.326,1.356,1.356,0,0,0-.5-1.072,1.941,1.941,0,0,0-.984-.648.425.425,0,0,0-.542.409,13.123,13.123,0,0,1-.66,2.509q-2.505,0-2.575.51a1.365,1.365,0,0,0,.231.881q.288.484.6.528a3.771,3.771,0,0,0,.959-.042q-.254.546-.951,2.007a8.88,8.88,0,0,0-.766,1.938,1.518,1.518,0,0,0,.539,1.221,2.1,2.1,0,0,0,1.126.724,3.816,3.816,0,0,0,2.323-.441q1.17-.6,1.244-1.142c.051-.358-.056-.557-.32-.594a6.356,6.356,0,0,0-1.207.194,5.351,5.351,0,0,1-1.294.182c-.174-.024-.258-.06-.251-.109s.183-.44.529-1.177.637-1.351.873-1.841.416-.871.54-1.144a16.539,16.539,0,0,0,2.19-.233q.723-.148.772-.5C1261.121,780.321,1260.75,780.087,1259.957,779.975Z"/><path class="c" d="M1222.809,789.659q-1.2-.169-2.682,1.432a6.567,6.567,0,0,0-1.755,3.583,2.917,2.917,0,0,0,.368,1.975,1.914,1.914,0,0,0,1.4.987,3.507,3.507,0,0,0,2.317-.506,5.567,5.567,0,0,0,1.888-1.827,5.815,5.815,0,0,0,.913-2.351,2.853,2.853,0,0,0-.537-2.16A2.742,2.742,0,0,0,1222.809,789.659Zm.374,2.976a4.6,4.6,0,0,1-.939,2.082,3.361,3.361,0,0,1-1.706,1.328,2.41,2.41,0,0,1-.02-1.239,4.944,4.944,0,0,1,.987-2.131,4.129,4.129,0,0,1,1.589-1.473A2.473,2.473,0,0,1,1223.183,792.635Z"/><path class="c" d="M1240.3,794.072a.526.526,0,0,0-.239-.478,1.818,1.818,0,0,0-.886-.31q-.61-.087-1.823-.191.489-1.3.933-2.277a3.45,3.45,0,0,1,.521-.88.531.531,0,0,1,.435-.229c.132.018.232.135.3.348a2.807,2.807,0,0,1,.122.688,1.849,1.849,0,0,0,.177.7.6.6,0,0,0,1.08.08,2.172,2.172,0,0,0,.35-.994,2.61,2.61,0,0,0-.376-1.813,1.8,1.8,0,0,0-1.26-.921,2.645,2.645,0,0,0-2.569,1.036,12.81,12.81,0,0,0-1.9,4.233,8.007,8.007,0,0,0-1.824.228.494.494,0,0,0,.072-.184.517.517,0,0,0-.239-.477,1.809,1.809,0,0,0-.886-.311q-.61-.087-1.822-.19.489-1.3.933-2.278a3.475,3.475,0,0,1,.52-.88.535.535,0,0,1,.437-.229c.132.018.231.136.3.349a2.941,2.941,0,0,1,.121.687,1.845,1.845,0,0,0,.177.7.6.6,0,0,0,1.08.08,2.161,2.161,0,0,0,.349-.994,2.6,2.6,0,0,0-.375-1.813,1.8,1.8,0,0,0-1.261-.921,2.647,2.647,0,0,0-2.569,1.036,12.834,12.834,0,0,0-1.9,4.233q-2.34.093-2.419.662a1.226,1.226,0,0,0,.935,1.328,3.418,3.418,0,0,0,.867-.008,19.289,19.289,0,0,1-1.12,2.558,2.054,2.054,0,0,0-.195.586,1.476,1.476,0,0,0,.3.809q.335.555.635.6.381.054.813-.734t1.693-3.988a19.16,19.16,0,0,0,2.639-.162,2.752,2.752,0,0,0,.352-.08.3.3,0,0,0-.026.061,1.223,1.223,0,0,0,.937,1.328,3.352,3.352,0,0,0,.865-.007,18.993,18.993,0,0,1-1.118,2.556,2.044,2.044,0,0,0-.2.587,1.471,1.471,0,0,0,.3.81q.333.555.634.6c.254.037.525-.209.814-.734s.853-1.853,1.691-3.987a19.34,19.34,0,0,0,2.641-.162Q1240.232,794.564,1240.3,794.072Z"/><path class="c" d="M1244.616,792.74a3.186,3.186,0,0,0-2.138.564,7.127,7.127,0,0,0-1.984,1.863,5.121,5.121,0,0,0-1.01,2.3,2.8,2.8,0,0,0,.528,2.1,2.871,2.871,0,0,0,2.029,1.142,4.93,4.93,0,0,0,2.44-.223q1.1-.411,1.185-1.028c.041-.286-.156-.459-.589-.519-.02,0-.325.03-.91.1a8.206,8.206,0,0,1-2.067-.065c-.381-.054-.61-.147-.688-.281a1.023,1.023,0,0,1-.056-.631,2.718,2.718,0,0,1,.262-.835,8.707,8.707,0,0,0,1.8.414,4.266,4.266,0,0,0,2.249-.314q1.141-.471,1.25-1.246a3.065,3.065,0,0,0-.578-2.093A2.484,2.484,0,0,0,1244.616,792.74Zm-1.779,3.288c-.18-.025-.315-.05-.409-.073a5.124,5.124,0,0,1,1.023-.963,1.3,1.3,0,0,1,.813-.315.98.98,0,0,1,.583.39c.193.231.283.4.268.506Q1245.008,796.334,1242.837,796.028Z"/><path class="c" d="M1252.716,793.8a2.826,2.826,0,0,0-1.175.134,4.787,4.787,0,0,0-1.288.6,1.478,1.478,0,0,0-.362-.811,1.039,1.039,0,0,0-.593-.326q-.554-.078-.68.811l-.156,1.8a7.526,7.526,0,0,1-.315,1.386,9.91,9.91,0,0,1-.632,1.391,4.15,4.15,0,0,0-.486,1.216,1.959,1.959,0,0,0,.12.929.8.8,0,0,0,.677.58q.5.07,1.03-.768a16.149,16.149,0,0,0,1.214-2.6,4.278,4.278,0,0,1,1-1.627,4.908,4.908,0,0,1,1.371-.9c.114-.048.3-.135.569-.259.047-.025.12-.066.22-.123a1.433,1.433,0,0,0,.213-.139c.043-.037.1-.1.186-.176a.694.694,0,0,0,.162-.406Q1253.872,793.961,1252.716,793.8Z"/><path class="c" d="M1257.766,789.822q-.491-.069-.555.391a36.651,36.651,0,0,1-.73,3.815q-.439,1.738-.717,2.565a4.568,4.568,0,0,0-.271,1,1.444,1.444,0,0,0,.3.981,1.179,1.179,0,0,0,.777.561q.539.075,1.736-3.092a25.745,25.745,0,0,0,1.343-4.215q.043-.316-.673-1.128A2.361,2.361,0,0,0,1257.766,789.822Z"/><path class="c" d="M1255.307,799.848a1.012,1.012,0,0,0-.788.319,1.3,1.3,0,0,0-.483.788,2.263,2.263,0,0,0,1.424,1.824.761.761,0,0,0,.551-.182.7.7,0,0,0,.326-.423,3.044,3.044,0,0,0-.3-1.351C1255.792,800.208,1255.55,799.882,1255.307,799.848Z"/></g></g></svg>