<svg xmlns="http://www.w3.org/2000/svg" width="10.717" height="9.665" viewBox="0 0 10.717 9.665"><defs><style>.a{fill:#f28b4f;}</style></defs><path class="a" d="M183.528,212.324a.36.36,0,0,0-.3-.235l-3.255-.449-1.46-2.789a.373.373,0,0,0-.487-.16.352.352,0,0,0-.169.16l-1.46,2.789-3.255.449a.35.35,0,0,0-.313.389.343.343,0,0,0,.108.2l2.357,2.172-.547,3.069a.348.348,0,0,0,.3.393.384.384,0,0,0,.217-.031l2.919-1.447,2.919,1.447a.375.375,0,0,0,.492-.146.331.331,0,0,0,.037-.217l-.555-3.069,2.357-2.172A.332.332,0,0,0,183.528,212.324Z" transform="translate(-172.831 -208.656)"/></svg>